<?xml version="1.0" standalone="no"?>
<!DOCTYPE svg PUBLIC "-//W3C//DTD SVG 20010904//EN"
 "http://www.w3.org/TR/2001/REC-SVG-20010904/DTD/svg10.dtd">
<svg version="1.0" xmlns="http://www.w3.org/2000/svg"
 width="1000.000000pt" height="1000.000000pt" viewBox="0 0 1000.000000 1000.000000"
 preserveAspectRatio="xMidYMid meet">
<metadata>
Created by potrace 1.14, written by Peter Selinger 2001-2017
</metadata>
<g transform="translate(0.000000,1000.000000) scale(0.100000,-0.100000)"
fill="#000000" stroke="none">
<path d="M452 9980 c-109 -29 -187 -74 -274 -161 -59 -58 -86 -94 -113 -150
-70 -149 -65 256 -65 -4675 0 -4410 0 -4462 20 -4538 29 -113 73 -190 160
-277 55 -56 95 -86 150 -113 147 -71 -263 -66 4676 -66 4410 0 4462 0 4538 20
113 29 190 73 277 160 56 55 86 95 113 150 71 147 66 -263 66 4676 0 4410 0
4462 -20 4538 -29 113 -73 190 -161 278 -58 59 -94 86 -150 113 -149 70 257
65 -4679 64 -4364 0 -4467 -1 -4538 -19z m8066 -996 c236 -48 422 -235 467
-469 13 -67 15 -536 15 -3516 0 -3825 6 -3518 -68 -3669 -51 -105 -160 -214
-264 -264 -148 -71 139 -66 -3669 -66 -3825 0 -3518 -6 -3669 68 -105 51 -214
160 -264 264 -71 148 -66 -139 -66 3669 0 3083 2 3448 16 3517 47 232 234 421
461 467 56 11 668 13 3516 14 3093 1 3456 -1 3525 -15z"/>
<path d="M3800 7810 c-307 -29 -553 -84 -783 -176 -363 -146 -638 -391 -782
-698 -78 -164 -121 -335 -131 -513 l-7 -113 520 0 519 0 12 90 c40 300 220
465 582 536 112 21 427 30 542 15 359 -48 558 -201 558 -430 0 -86 -19 -150
-66 -218 -120 -175 -429 -291 -936 -353 -285 -34 -754 -60 -1110 -60 l-158 0
0 -805 0 -805 1470 0 1470 0 0 430 0 430 -1077 1 c-958 1 -1065 3 -963 15 824
96 1325 210 1685 383 204 98 318 176 437 297 222 226 317 486 305 832 -6 180
-26 263 -102 417 -189 386 -593 624 -1205 710 -135 19 -631 28 -780 15z"/>
<path d="M6410 7513 c-1 -27 242 -3190 245 -3200 3 -10 92 -13 400 -13 l395 0
0 28 c0 15 54 734 120 1597 66 864 120 1576 120 1583 0 9 -135 12 -640 12
-352 0 -640 -3 -640 -7z"/>
<path d="M3800 3826 c-182 -41 -297 -102 -421 -226 -82 -81 -102 -109 -142
-190 -71 -145 -82 -196 -82 -390 1 -161 2 -168 34 -263 92 -268 271 -439 546
-523 82 -25 105 -27 260 -28 183 -1 228 7 363 60 193 78 359 234 442 418 95
209 95 482 0 685 -109 232 -329 401 -592 455 -92 19 -326 20 -408 2z"/>
<path d="M6880 3833 c-326 -55 -579 -280 -661 -589 -30 -111 -30 -316 0 -429
77 -294 287 -507 581 -587 74 -20 107 -23 255 -22 155 0 178 3 258 27 390 119
622 440 605 836 -8 174 -58 311 -164 451 -120 159 -312 271 -528 309 -57 11
-293 13 -346 4z"/>
</g>
</svg>
