<svg width="200" height="97" viewBox="0 0 200 97" fill="none" xmlns="http://www.w3.org/2000/svg">
<path d="M52 8.516L52.306 9.992C55.744 8.984 57.112 6.482 57.868 3.764L57.706 4.556L55.528 15.734H57.166L59.65 3.044H56.932C56.302 5.51 54.916 7.562 52 8.516Z" fill="black"/>
<path d="M62.1597 7.634L63.5457 7.292L63.0597 2L61.6737 2.324L62.1597 7.634Z" fill="black"/>
<path d="M69.813 15.932C73.179 15.932 75.321 13.448 75.915 9.92C76.581 5.906 74.925 2.846 71.199 2.846C67.833 2.846 65.709 5.312 65.115 8.858C64.431 12.872 66.087 15.932 69.813 15.932ZM66.735 8.966C67.221 6.176 68.679 4.25 71.127 4.25C72.297 4.25 73.143 4.682 73.683 5.42L66.771 12.152C66.519 11.27 66.519 10.172 66.735 8.966ZM67.329 13.322L74.241 6.59C74.511 7.49 74.529 8.606 74.313 9.794C73.791 12.728 72.243 14.51 69.921 14.51C68.751 14.51 67.887 14.078 67.329 13.322Z" fill="black"/>
<path d="M82.9614 15.932C86.3274 15.932 88.4694 13.448 89.0634 9.92C89.7294 5.906 88.0734 2.846 84.3474 2.846C80.9814 2.846 78.8574 5.312 78.2634 8.858C77.5794 12.872 79.2354 15.932 82.9614 15.932ZM79.8834 8.966C80.3694 6.176 81.8274 4.25 84.2754 4.25C85.4454 4.25 86.2914 4.682 86.8314 5.42L79.9194 12.152C79.6674 11.27 79.6674 10.172 79.8834 8.966ZM80.4774 13.322L87.3894 6.59C87.6594 7.49 87.6774 8.606 87.4614 9.794C86.9394 12.728 85.3914 14.51 83.0694 14.51C81.8994 14.51 81.0354 14.078 80.4774 13.322Z" fill="black"/>
<path d="M96.1098 15.932C99.4758 15.932 101.618 13.448 102.212 9.92C102.878 5.906 101.222 2.846 97.4958 2.846C94.1298 2.846 92.0058 5.312 91.4118 8.858C90.7278 12.872 92.3838 15.932 96.1098 15.932ZM93.0318 8.966C93.5178 6.176 94.9758 4.25 97.4238 4.25C98.5938 4.25 99.4398 4.682 99.9798 5.42L93.0678 12.152C92.8158 11.27 92.8158 10.172 93.0318 8.966ZM93.6258 13.322L100.538 6.59C100.808 7.49 100.826 8.606 100.61 9.794C100.088 12.728 98.5398 14.51 96.2178 14.51C95.0478 14.51 94.1838 14.078 93.6258 13.322Z" fill="black"/>
<path d="M104.769 7.634L106.155 7.292L105.669 2L104.283 2.324L104.769 7.634Z" fill="black"/>
<path d="M112.422 15.932C115.788 15.932 117.93 13.448 118.524 9.92C119.19 5.906 117.534 2.846 113.808 2.846C110.442 2.846 108.318 5.312 107.724 8.858C107.04 12.872 108.696 15.932 112.422 15.932ZM109.344 8.966C109.83 6.176 111.288 4.25 113.736 4.25C114.906 4.25 115.752 4.682 116.292 5.42L109.38 12.152C109.128 11.27 109.128 10.172 109.344 8.966ZM109.938 13.322L116.85 6.59C117.12 7.49 117.138 8.606 116.922 9.794C116.4 12.728 114.852 14.51 112.53 14.51C111.36 14.51 110.496 14.078 109.938 13.322Z" fill="black"/>
<path d="M125.571 15.932C128.937 15.932 131.079 13.448 131.673 9.92C132.339 5.906 130.683 2.846 126.957 2.846C123.591 2.846 121.467 5.312 120.873 8.858C120.189 12.872 121.845 15.932 125.571 15.932ZM122.493 8.966C122.979 6.176 124.437 4.25 126.885 4.25C128.055 4.25 128.901 4.682 129.441 5.42L122.529 12.152C122.277 11.27 122.277 10.172 122.493 8.966ZM123.087 13.322L129.999 6.59C130.269 7.49 130.287 8.606 130.071 9.794C129.549 12.728 128.001 14.51 125.679 14.51C124.509 14.51 123.645 14.078 123.087 13.322Z" fill="black"/>
<path d="M138.719 15.932C142.085 15.932 144.227 13.448 144.821 9.92C145.487 5.906 143.831 2.846 140.105 2.846C136.739 2.846 134.615 5.312 134.021 8.858C133.337 12.872 134.993 15.932 138.719 15.932ZM135.641 8.966C136.127 6.176 137.585 4.25 140.033 4.25C141.203 4.25 142.049 4.682 142.589 5.42L135.677 12.152C135.425 11.27 135.425 10.172 135.641 8.966ZM136.235 13.322L143.147 6.59C143.417 7.49 143.435 8.606 143.219 9.794C142.697 12.728 141.149 14.51 138.827 14.51C137.657 14.51 136.793 14.078 136.235 13.322Z" fill="black"/>
<path d="M146.837 15.914C147.719 15.914 148.439 15.23 148.475 14.384C148.529 13.538 147.863 12.872 146.999 12.872C146.117 12.872 145.433 13.538 145.397 14.384C145.361 15.23 145.955 15.914 146.837 15.914Z" fill="black"/>
<path d="M149.862 10.532L149.61 11.828H158.286L158.538 10.532H149.862Z" fill="black"/>
<path fill-rule="evenodd" clip-rule="evenodd" d="M42 7.16027L15 7.16027L15 1.39474e-05L0 8.66027L15 17.3205L15 10.1603L42 10.1603V7.16027ZM168 10.1603L185 10.1603V17.3205L200 8.66025L185 0V7.16025L168 7.16025V10.1603Z" fill="black"/>
</svg>
